<svg width="217" height="52" viewBox="0 0 217 52" fill="none" xmlns="http://www.w3.org/2000/svg">
<path d="M72.6222 20.3073V25.1789H81.0652V29.0105H72.6222V38.2063H68.4282V16.3115H82.9415V20.3073H72.6222Z" fill="black"/>
<path d="M89.2877 38.207H85.2594V22.607H89.2877V38.207ZM84.542 18.228C84.542 16.6954 85.756 15.5459 87.246 15.5459C88.6807 15.5459 89.8948 16.6954 89.8948 18.228C89.8948 19.5964 88.6807 20.8554 87.246 20.8554C85.756 20.8554 84.542 19.5964 84.542 18.228Z" fill="black"/>
<path d="M107.829 29.7224V38.2066H103.635V30.6529C103.635 30.1603 104.022 26.2192 100.987 26.055C99.4966 25.9455 96.8477 26.7666 96.8477 30.8718V38.2066H92.709V22.6066H95.9096L96.4615 24.4676H96.9581C97.6203 23.7013 99.1102 22.4424 101.759 22.4424C105.843 22.4424 107.829 25.3982 107.829 29.7224Z" fill="black"/>
<path d="M122.121 37.0564C122.121 37.0564 120.797 38.3701 118.369 38.3701C115.334 38.3701 112.74 36.2901 112.74 33.1701V25.9448H109.595V22.8795H111.195C112.244 22.8795 112.961 22.1679 112.961 21.0185V17.8984H116.769V22.6058H120.742V25.9448H116.769V32.8964C116.769 33.9911 117.652 34.8122 118.81 34.8122C119.749 34.8122 120.631 34.2648 120.631 34.2648L122.121 37.0564Z" fill="black"/>
<path d="M127.144 28.4087H134.207C133.711 26.6024 132.441 25.8361 130.841 25.8361C129.13 25.8361 127.751 26.8213 127.144 28.4087ZM138.346 31.5834H126.868C127.364 33.9371 129.296 34.8129 131.006 34.8129C133.103 34.8129 134.042 33.4992 134.042 33.4992H138.015C136.801 36.6192 133.931 38.3708 130.841 38.3708C126.592 38.3708 122.895 35.1413 122.895 30.2697C122.895 25.3982 126.592 22.4424 130.731 22.4424C134.759 22.4424 138.843 25.1792 138.346 31.5834Z" fill="black"/>
<path d="M148.278 38.3708C143.919 38.3708 140.332 35.0318 140.332 30.434C140.332 25.7813 144.029 22.4424 148.444 22.4424C152.031 22.4424 155.066 24.6318 155.949 28.2992H151.645C150.982 27.0403 149.824 26.2192 148.334 26.2192C146.126 26.2192 144.36 27.9708 144.36 30.3792C144.36 32.8424 146.126 34.594 148.334 34.594C149.768 34.594 150.872 33.8276 151.534 32.6782H155.839C154.845 36.4003 151.589 38.3708 148.278 38.3708Z" fill="black"/>
<path d="M173.443 29.7223V38.2065H169.249V30.6528C169.249 29.1202 169.469 26.0549 166.655 26.0549C165.275 26.0549 162.571 26.7665 162.571 30.8718V38.2065H158.377V16.0381H162.351V24.1939H162.903C163.675 23.4276 165.11 22.4423 167.428 22.4423C171.511 22.4423 173.443 25.3981 173.443 29.7223Z" fill="black"/>
<path d="M180.947 38.2065H176.864V16.0381H180.947V38.2065Z" fill="black"/>
<path d="M193.308 31.6382V31.3097C190.439 31.6382 187.625 31.9666 187.625 33.6087C187.625 35.9624 193.088 35.7982 193.308 31.6382ZM199.048 35.1961V38.2066H198.109C196.288 38.2066 194.964 37.5497 194.467 36.1813C193.529 37.495 191.929 38.3708 189.501 38.3708C185.914 38.3708 183.651 36.5097 183.651 33.7182C183.651 28.8466 190.384 28.4087 193.364 28.2445C193.308 26.4382 192.315 25.7813 190.715 25.7813C188.452 25.7813 188.287 27.1497 188.287 27.1497H184.369C184.645 24.3582 186.962 22.4424 190.825 22.4424C194.523 22.4424 197.171 24.2487 197.171 28.7918V32.9519C197.171 34.7582 197.834 35.1961 199.048 35.1961Z" fill="black"/>
<path d="M212.513 30.3791C212.513 27.6423 210.581 26.2739 208.65 26.2739C206.608 26.2739 205.173 27.8065 205.173 30.3791C205.173 32.9518 206.608 34.4844 208.65 34.4844C210.581 34.4844 212.513 33.116 212.513 30.3791ZM216.596 30.3791C216.596 35.0865 213.23 38.3707 209.257 38.3707C207.546 38.3707 206.222 37.7686 205.229 36.6739H204.787L204.346 38.2065H201.255V16.0381H205.173V24.0844C206.222 22.9897 207.601 22.4423 209.257 22.4423C213.23 22.4423 216.596 25.6718 216.596 30.3791Z" fill="black"/>
<path d="M76.1539 10.6193H74.7191V5.9666H74.6088L73.174 10.0719H71.4081L69.9734 5.9666H69.863V10.6193H68.4282V2.95605H70.3044L72.2359 8.37503H72.4014L74.2777 2.95605H76.1539V10.6193Z" fill="black"/>
<path d="M79.7406 7.38977H79.0783V10.6193H77.5884V2.95605H79.0783V5.9666H79.6853L81.672 2.95605H83.3275L80.9546 6.67818L83.6586 10.6193H82.0031L79.7406 7.38977Z" fill="black"/>
<path d="M88.4044 8.32029C88.4044 7.82766 88.1284 7.28029 87.08 7.28029H85.8107V9.30557H86.9696C88.0181 9.30557 88.4044 8.86766 88.4044 8.32029ZM85.8107 5.9666H86.8592C87.8525 5.9666 88.0733 5.5287 88.0733 5.14554C88.0733 4.59817 87.687 4.215 86.8592 4.215H85.8107V5.9666ZM89.8943 8.42977C89.8943 9.85294 88.7355 10.6193 87.3007 10.6193H84.4312V2.95605H87.08C88.1836 2.95605 89.5081 3.55817 89.5081 4.9266C89.5081 5.58344 89.2321 6.18554 88.6251 6.45923V6.56871C89.3425 6.78766 89.8943 7.38977 89.8943 8.42977Z" fill="black"/>
<path d="M30.6272 44.5562C30.0202 44.1183 29.2476 44.0089 28.5854 44.1731C27.8129 44.3373 27.2058 44.8299 26.8196 45.5415C26.4333 46.1983 26.3781 47.0741 26.5988 47.8952C26.8748 48.6068 27.2059 49.3183 27.5921 49.9752C27.8681 50.5225 28.1992 51.0152 28.5303 51.5078L28.751 51.8362L28.9165 51.9457H29.0821C29.0821 52.0004 29.1373 52.0004 29.1373 52.0004C29.2476 52.0004 29.4132 51.9457 29.5236 51.7815C29.6339 51.672 29.6891 51.5625 29.7995 51.4531C30.4617 50.5225 31.179 49.4278 31.6757 48.1141C31.8413 47.5668 31.8965 47.0741 31.8413 46.5815C31.7309 45.7604 31.2894 44.9941 30.6272 44.5562Z" fill="#13E7CF"/>
<path d="M33.2763 36.2363H24.7228C24.0606 36.2363 23.4536 36.7837 23.4536 37.4953C23.4536 38.2069 24.0606 38.7542 24.7228 38.7542H33.2763C33.9937 38.7542 34.5455 38.2069 34.5455 37.4953C34.5455 36.7837 33.9937 36.2363 33.2763 36.2363Z" fill="#13E7CF"/>
<path d="M31.8413 40.1768H26.2678C25.5504 40.1768 24.9985 40.7241 24.9985 41.4357C24.9985 42.1473 25.5504 42.6946 26.2678 42.6946H31.8413C32.5035 42.6946 33.1105 42.1473 33.1105 41.4357C33.1105 40.7241 32.5035 40.1768 31.8413 40.1768Z" fill="#13E7CF"/>
<path d="M36.587 22.9347C36.1455 23.8105 35.704 24.6316 35.2625 25.5073C33.4415 25.6168 31.5101 25.6716 29.5786 25.6716C27.3161 25.7263 25.1088 25.6716 22.9566 25.5621C22.5703 24.741 22.184 23.92 21.7426 23.0989C19.9767 19.541 18.266 16.0926 18.266 13.301C18.266 10.4547 19.3697 7.71789 21.4667 5.69263C23.5084 3.66736 26.2676 2.51788 29.1372 2.51788C32.0619 2.51788 34.7659 3.66736 36.8629 5.69263C38.9047 7.71789 40.0635 10.4547 40.0635 13.301C40.0635 16.0926 38.3528 19.3768 36.587 22.9347ZM32.6689 32.1852H25.6054C25.2191 30.8168 24.7225 29.4484 24.1707 28.1347C25.6606 28.1895 27.2057 28.1895 28.7509 28.1895C29.0268 28.1895 29.3027 28.1895 29.5786 28.1895C31.1238 28.1895 32.6137 28.1895 34.1037 28.08C33.5519 29.4484 33.0552 30.7621 32.6689 32.1852ZM9.82293 24.0842C3.86311 22.88 2.5387 21.4568 2.5387 21.1831C2.5387 20.5263 5.79453 18.3368 16.3346 17.0779C17.052 19.3768 18.266 21.7852 19.4801 24.2484C19.7008 24.6316 19.8663 25.0147 20.0871 25.3979C16.2794 25.1242 12.7477 24.6863 9.82293 24.0842ZM53.5835 16.421C50.7691 15.5453 46.9615 14.8337 42.5468 14.3958C42.5468 14.0126 42.602 13.6842 42.602 13.3558C42.602 9.79789 41.1672 6.40419 38.6288 3.8863C36.0903 1.36841 32.7241 0 29.1372 0C25.5502 0 22.184 1.36841 19.6456 3.8863C17.1072 6.40419 15.7276 9.74315 15.7276 13.301C15.7276 13.7389 15.7276 14.1768 15.7828 14.6147C8.38815 15.4905 -0.0549145 17.3516 0.000269079 21.1831C0.000269079 23.5368 3.03534 25.2884 9.32627 26.5474C12.7476 27.2589 16.8312 27.7516 21.3011 28.0252C22.184 29.8863 22.9014 31.8021 23.3429 33.7179C23.5085 34.32 24.0051 34.7031 24.6121 34.7031H33.6622C34.2693 34.7031 34.7659 34.2652 34.8763 33.7179C35.3177 31.7473 36.0903 29.8315 36.918 27.9705C39.2358 27.8063 41.4431 27.6421 43.4849 27.3684C44.2023 28.4631 45.4715 29.12 46.7959 28.9558C48.6722 28.7368 49.9965 27.1495 49.8862 25.3431C49.8862 25.2337 49.8862 25.1242 49.831 25.0147V24.96C49.4999 23.2084 47.8444 21.9495 46.0233 22.1137C44.5334 22.3326 43.3194 23.4274 43.0434 24.9052C41.4983 25.0695 39.898 25.2337 38.1873 25.3431C38.408 24.9052 38.6287 24.4674 38.8495 24.0842V24.0295C40.1187 21.5663 41.3327 19.1579 41.9949 16.8589C46.4096 17.2968 50.1069 17.9537 52.8109 18.8295C56.3427 19.9242 56.5634 20.8 56.5634 20.8547C56.5634 20.8547 56.453 21.3474 54.7975 22.1684C54.1353 22.4421 53.9146 23.2084 54.1905 23.8105C54.4113 24.3031 54.8527 24.5221 55.3494 24.5221C55.5149 24.5221 55.7356 24.5221 55.9012 24.4126C57.9982 23.4273 59.1018 22.2231 59.1018 20.8C59.0467 18.9937 57.2808 17.5705 53.5835 16.421Z" fill="#13E7CF"/>
<path d="M32.614 14.1775C32.5036 14.1227 32.3932 14.0133 32.2829 13.9585C32.2277 13.9038 32.1725 13.9038 32.1173 13.849C32.007 13.7943 31.8966 13.7396 31.7862 13.6848C31.731 13.6301 31.6759 13.6301 31.5655 13.5754C31.3999 13.5206 31.2344 13.4111 31.0688 13.3564C31.0136 13.3017 30.9033 13.3017 30.8481 13.3017C30.7377 13.2469 30.6274 13.1922 30.517 13.1375C30.3514 13.0827 30.2411 13.028 30.1307 13.028C29.9651 12.9185 29.7444 12.8638 29.5789 12.809C29.4685 12.7543 29.4133 12.7543 29.3029 12.6996C29.1374 12.6448 29.027 12.5901 28.8615 12.5354C28.7511 12.4806 28.6408 12.4259 28.5304 12.3711C28.4752 12.3164 28.42 12.3164 28.3096 12.2617C27.813 11.988 27.5923 11.7143 27.5923 11.3859C27.5923 11.3494 27.5923 11.3129 27.5923 11.2764C27.5923 10.8385 27.9785 10.2911 29.1926 10.1817C29.3029 10.1817 29.4133 10.1817 29.5237 10.1817C30.2411 10.1817 30.9585 10.2911 31.6207 10.5101C31.6574 10.5101 31.6942 10.5283 31.731 10.5648H31.7862C31.823 10.5648 31.8414 10.5648 31.8414 10.5648H31.8966C31.9334 10.5648 31.9702 10.5648 32.0069 10.5648H32.1173C32.1725 10.5648 32.2277 10.5648 32.2829 10.5648H32.338C32.338 10.5648 32.3932 10.5648 32.5036 10.5648C32.5036 10.5101 32.5588 10.5101 32.614 10.5101L32.6692 10.4554C32.7243 10.4554 32.7795 10.4554 32.8347 10.4006C32.8715 10.3641 32.9083 10.3276 32.9451 10.2912H33.0002C33.0002 10.2364 33.0554 10.2364 33.1106 10.1817C33.1106 10.1269 33.1658 10.0722 33.221 10.0722V10.0175C33.2762 9.96273 33.2762 9.908 33.2762 9.85326L33.3865 9.74378C33.4417 9.57957 33.4417 9.41537 33.4969 9.3059C33.4969 9.14169 33.4417 8.97747 33.3865 8.86799C33.3865 8.81326 33.3313 8.75853 33.3313 8.75853C33.3313 8.70379 33.2762 8.64905 33.2762 8.64905C33.221 8.53958 33.1658 8.48484 33.1106 8.43011C32.9451 8.32063 32.8347 8.2659 32.6692 8.21116C32.3381 8.10169 32.0621 7.99222 31.731 7.93748C31.3999 7.82801 31.0688 7.828 30.7377 7.77326C30.6274 7.77326 30.6273 7.71852 30.5722 7.71852V7.00695C30.5722 6.89748 30.5722 6.73326 30.517 6.62379C30.517 6.56905 30.4618 6.51431 30.4066 6.40484C30.1859 6.07642 29.7444 5.80273 29.3029 5.80273C29.2662 5.80273 29.2294 5.80273 29.1926 5.80273C28.7511 5.85747 28.3648 6.07642 28.1441 6.40484C28.0889 6.51431 28.0889 6.56905 28.0337 6.62379C27.9785 6.73326 27.9786 6.89748 27.9786 7.00695V7.88274H27.9234C27.9234 7.93748 27.8682 7.93748 27.8682 7.93748C25.716 8.37537 24.3916 9.79851 24.3916 11.5501C24.3916 11.769 24.4468 12.0427 24.502 12.2617C24.5572 12.5901 24.7227 12.8638 24.8883 13.1375C24.9434 13.2469 24.9986 13.3564 25.0538 13.4659C25.1642 13.5206 25.2194 13.6301 25.3297 13.6848C25.3849 13.7943 25.4953 13.9038 25.6056 13.9585C25.716 14.0133 25.7712 14.1227 25.8816 14.1775C25.9919 14.2869 26.1023 14.3417 26.2127 14.3964C26.323 14.4511 26.4334 14.5606 26.5438 14.6153C26.8197 14.7248 27.0404 14.8343 27.3163 14.9438C27.7026 15.108 28.1441 15.2722 28.6959 15.4364C28.7511 15.4911 28.8063 15.4911 28.8615 15.5459C28.9718 15.5459 29.027 15.5459 29.0822 15.6006C29.1926 15.6554 29.3029 15.6553 29.4133 15.7101C29.4501 15.7466 29.4869 15.7648 29.5237 15.7648C29.6341 15.8196 29.7444 15.8743 29.7996 15.929C29.8548 15.929 29.91 15.929 29.91 15.9838C30.0755 16.0385 30.1307 16.0932 30.2411 16.148C30.2963 16.2027 30.3514 16.2574 30.4066 16.2574C30.4618 16.3122 30.517 16.3669 30.5722 16.4217C30.6273 16.4217 30.6273 16.4764 30.6825 16.5311C30.7377 16.5311 30.7377 16.5859 30.7929 16.6406C30.7929 16.6406 30.8481 16.6953 30.8481 16.7501V16.8048C30.9033 16.8048 30.9033 16.8596 30.9033 16.8596C30.9585 16.9143 30.9584 16.969 30.9584 16.969C30.9584 17.0238 30.9584 17.0785 30.9584 17.1332C30.9584 17.1332 31.0137 17.188 31.0137 17.2427V17.2974C31.0137 17.4069 30.9585 17.5711 30.9033 17.6806C30.8481 17.7901 30.7377 17.9543 30.6274 18.0638C30.5722 18.0638 30.517 18.1185 30.517 18.1732C30.0755 18.5017 29.4685 18.6659 28.7511 18.6659C27.6474 18.6659 26.8197 18.3922 26.2127 18.1732C26.2127 18.1732 26.1575 18.1185 26.1023 18.1185H26.0471H25.9919L25.9368 18.0638C25.9 18.0638 25.8816 18.0638 25.8816 18.0638C25.8448 18.0638 25.8264 18.0638 25.8264 18.0638H25.716C25.6608 18.0638 25.6057 18.0638 25.5505 18.0638H25.4953C25.4401 18.1185 25.3849 18.1185 25.3297 18.1185C25.2745 18.1185 25.2745 18.1732 25.1642 18.1732C25.109 18.228 25.0538 18.228 24.9986 18.2827C24.9435 18.2827 24.9434 18.3374 24.8883 18.3922H24.8331C24.7963 18.4287 24.7595 18.4652 24.7227 18.5017C24.6675 18.5564 24.6675 18.6111 24.6123 18.6111C24.6123 18.6476 24.6123 18.6659 24.6123 18.6659C24.5572 18.7206 24.5572 18.7753 24.502 18.8301L24.4468 18.9943C24.4468 19.049 24.3916 19.1038 24.3916 19.1585C24.3916 19.2132 24.3916 19.268 24.3916 19.268C24.3364 19.3227 24.3364 19.3774 24.3364 19.3774C24.3364 19.4869 24.3916 19.5964 24.3916 19.7059C24.3916 19.7606 24.4468 19.7606 24.4468 19.8153C24.4468 19.8518 24.4652 19.8883 24.502 19.9248C24.5572 20.0343 24.6124 20.1438 24.7227 20.1985C24.7227 20.2532 24.7779 20.2532 24.7779 20.2532C24.8883 20.3627 24.9986 20.4174 25.109 20.4722C25.5505 20.6364 26.1023 20.8006 26.6541 20.9101C26.8749 20.9648 27.0956 21.0195 27.3163 21.0195C27.4267 21.0195 27.5371 21.0743 27.6474 21.0743C27.7026 21.0743 27.7578 21.0743 27.813 21.129V21.8953C27.813 22.5522 28.42 23.0995 29.1374 23.0995C29.8548 23.0995 30.4618 22.5522 30.4618 21.8953V20.9648H30.517C30.517 20.9283 30.5354 20.9101 30.5722 20.9101C30.8481 20.8553 31.124 20.7459 31.3999 20.6364C31.6758 20.5816 31.9517 20.4174 32.2277 20.308C32.2828 20.2532 32.3932 20.1438 32.5036 20.089C32.6139 20.0343 32.7243 19.9795 32.7795 19.8701C32.8347 19.8701 32.8899 19.8153 32.9451 19.7606C33.0554 19.6511 33.1658 19.5417 33.2762 19.4322C33.3865 19.3227 33.4417 19.2132 33.4969 19.1585C33.5521 19.1038 33.5521 19.049 33.6072 18.9943C33.7176 18.8848 33.7728 18.7206 33.828 18.5564C33.8832 18.5017 33.9384 18.3922 33.9935 18.2827C34.1039 17.8996 34.1591 17.5164 34.1591 17.1332C34.1591 15.929 33.6624 14.9438 32.614 14.1775Z" fill="#13E7CF"/>
</svg>
